<?xml version="1.0" encoding="utf-8"?>
<!-- Generator: Adobe Illustrator 16.0.0, SVG Export Plug-In . SVG Version: 6.00 Build 0)  -->
<!DOCTYPE svg PUBLIC "-//W3C//DTD SVG 1.1//EN" "http://www.w3.org/Graphics/SVG/1.1/DTD/svg11.dtd">
<svg version="1.1" id="Layer_1" xmlns="http://www.w3.org/2000/svg" xmlns:xlink="http://www.w3.org/1999/xlink" x="0px" y="0px"
	 width="589px" height="294.334px" viewBox="0 0 589 294.334" enable-background="new 0 0 589 294.334" xml:space="preserve">
<g>
	<path d="M16.105,275.545V20.143h158.525v22.751H41.059v92.473h113.757v22.018H41.059v95.409h133.572v22.751H16.105z"/>
	<path d="M283.615,234.445c4.157-14.678,8.561-29.23,13.211-43.668c4.645-14.431,9.174-28.989,13.577-43.667l39.999-126.967h26.787
		L292.79,275.545h-20.917l-84.4-255.402h26.421c0.975,3.429,2.569,8.503,4.771,15.229c2.202,6.731,4.587,14.191,7.156,22.385
		c2.568,8.199,5.32,16.88,8.256,26.054s5.745,17.86,8.44,26.054c2.688,8.199,5.074,15.659,7.155,22.384
		c2.076,6.731,3.728,11.806,4.954,15.229l27.521,87.336L283.615,234.445z"/>
	<path d="M553.33,275.545c-3.67-10.028-7.281-20.057-10.825-30.091c-3.549-10.028-7.035-20.183-10.458-30.457H417.556
		c-3.669,10.274-7.281,20.429-10.825,30.457c-3.549,10.034-7.035,20.063-10.458,30.091h-26.054
		c15.412-42.808,30.882-85.375,46.42-127.701c15.532-42.321,31.128-84.888,46.787-127.701h22.751l93.574,255.402H553.33z
		 M474.067,52.068c-1.961,6.364-5.017,15.538-9.174,27.522c-4.163,11.989-8.566,24.586-13.211,37.796
		c-5.384,14.678-10.458,28.932-15.229,42.75c-4.771,13.824-8.749,25.017-11.926,33.577h100.179l-28.622-82.566l-20.917-59.08
		H474.067z"/>
</g>
<g>
</g>
<g>
</g>
<g>
</g>
<g>
</g>
<g>
</g>
<g>
</g>
</svg>
